<svg width="16" height="16" viewBox="0 0 16 16" fill="none" xmlns="http://www.w3.org/2000/svg">
<path d="M8.95123 7.72478L15.1305 1.57928C15.4267 1.28603 15.4267 0.811281 15.1305 0.518781C14.835 0.225531 14.355 0.225531 14.0595 0.518781L7.88548 6.65903L1.65448 0.427281C1.35898 0.131031 0.878981 0.131031 0.583481 0.427281C0.287981 0.724281 0.287981 1.20503 0.583481 1.50128L6.80998 7.72853L0.56098 13.943C0.26548 14.2363 0.26548 14.711 0.56098 15.0035C0.85648 15.2968 1.33648 15.2968 1.63198 15.0035L7.87573 8.79428L14.082 15.0013C14.3775 15.2975 14.8575 15.2975 15.153 15.0013C15.4485 14.7043 15.4485 14.2235 15.153 13.9273L8.95123 7.72478Z" fill="#808080"/>
</svg>
