<svg width="24" height="24" viewBox="0 0 24 24" fill="none" xmlns="http://www.w3.org/2000/svg">
<path d="M17.5476 23.2983C16.3029 23.2632 14.9881 23.0003 13.7786 22.4042C8.46687 19.7396 4.22454 15.9706 1.57746 10.5538C1.1392 9.65971 0.788598 8.7306 0.560704 7.76644C-0.0353264 5.18948 0.911312 2.71771 3.05001 1.24517C4.24207 0.421246 5.13611 0.561488 5.94251 1.75355C6.81902 3.03326 7.74813 4.26038 8.44934 5.64527C8.99278 6.71462 9.16808 7.67878 8.20391 8.74813C6.99432 10.0804 7.06445 11.5705 8.20391 12.9379C8.90513 13.7969 9.6414 14.6383 10.4127 15.4096C11.6924 16.7069 13.0072 16.8822 14.6375 16.0933C14.8479 15.9881 15.0758 15.9005 15.2511 15.7602C16.636 14.6032 17.9508 14.8136 19.2831 15.8479C20.2472 16.6017 21.3341 17.1802 22.2106 18.0567C23.2274 19.0559 23.2624 19.7221 22.456 20.9142C21.3166 22.6321 19.6337 23.2632 17.5476 23.2983Z" fill="#676767"/>
</svg>
