<svg width="80" height="77" viewBox="0 0 80 77" fill="none" xmlns="http://www.w3.org/2000/svg">
<path d="M7.8125 22.625H24.875C25.2065 22.625 25.5245 22.4932 25.7589 22.2589C25.9932 22.0245 26.125 21.7065 26.125 21.375C26.125 21.0435 25.9932 20.7255 25.7589 20.4911C25.5245 20.2568 25.2065 20.125 24.875 20.125H7.8125C7.48098 20.125 7.16304 20.2568 6.92861 20.4911C6.6942 20.7255 6.5625 21.0435 6.5625 21.375C6.5625 21.7065 6.6942 22.0245 6.92861 22.2589C7.16304 22.4932 7.48098 22.625 7.8125 22.625Z" fill="url(#paint0_linear_116_311)"/>
<path d="M11.4375 26.8501C11.106 26.8501 10.788 26.9819 10.5536 27.2163C10.3192 27.4508 10.1875 27.7686 10.1875 28.1001C10.1875 28.4316 10.3192 28.7496 10.5536 28.984C10.788 29.2185 11.106 29.3501 11.4375 29.3501H24.0875C24.419 29.3501 24.737 29.2185 24.9714 28.984C25.2057 28.7496 25.3375 28.4316 25.3375 28.1001C25.3375 27.7686 25.2057 27.4508 24.9714 27.2163C24.737 26.9819 24.419 26.8501 24.0875 26.8501H11.4375Z" fill="url(#paint1_linear_116_311)"/>
<path d="M5 36.0625H23.3125C23.644 36.0625 23.962 35.9307 24.1964 35.6964C24.4307 35.462 24.5625 35.144 24.5625 34.8125C24.5625 34.481 24.4307 34.163 24.1964 33.9286C23.962 33.6943 23.644 33.5625 23.3125 33.5625H5C4.66848 33.5625 4.35054 33.6943 4.11611 33.9286C3.8817 34.163 3.75 34.481 3.75 34.8125C3.75 35.144 3.8817 35.462 4.11611 35.6964C4.35054 35.9307 4.66848 36.0625 5 36.0625Z" fill="url(#paint2_linear_116_311)"/>
<path d="M23.5125 41.5376C23.5125 41.2061 23.3807 40.8883 23.1464 40.6538C22.912 40.4194 22.594 40.2876 22.2625 40.2876H9.6875C9.35598 40.2876 9.03804 40.4194 8.80361 40.6538C8.5692 40.8883 8.4375 41.2061 8.4375 41.5376C8.4375 41.8691 8.5692 42.1871 8.80361 42.4215C9.03804 42.656 9.35598 42.7876 9.6875 42.7876H22.2625C22.594 42.7876 22.912 42.656 23.1464 42.4215C23.3807 42.1871 23.5125 41.8691 23.5125 41.5376Z" fill="url(#paint3_linear_116_311)"/>
<path d="M6.5625 47C6.23098 47 5.91304 47.1318 5.67861 47.3661C5.4442 47.6005 5.3125 47.9185 5.3125 48.25C5.3125 48.5815 5.4442 48.8995 5.67861 49.1339C5.91304 49.3682 6.23098 49.5 6.5625 49.5H17.8125C18.144 49.5 18.462 49.3682 18.6964 49.1339C18.9307 48.8995 19.0625 48.5815 19.0625 48.25C19.0625 47.9185 18.9307 47.6005 18.6964 47.3661C18.462 47.1318 18.144 47 17.8125 47H6.5625Z" fill="url(#paint4_linear_116_311)"/>
<path d="M59.6749 17.45C59.5614 17.3138 59.4203 17.203 59.2608 17.1255C59.1013 17.0479 58.9272 17.0051 58.7499 17H25.2249C24.9158 16.9981 24.617 17.1108 24.3863 17.3163C24.1554 17.5218 24.0089 17.8054 23.9749 18.1125L21.0249 43.725C21.0052 43.9004 21.0229 44.078 21.0767 44.246C21.1305 44.414 21.2194 44.5687 21.3374 44.7C21.4532 44.8317 21.5953 44.9377 21.7547 45.011C21.914 45.0841 22.087 45.123 22.2624 45.125H55.7749C56.0839 45.1269 56.3827 45.0142 56.6135 44.8088C56.8443 44.6034 56.9909 44.3196 57.0249 44.0125L59.9999 18.425C60.0179 18.2487 59.9983 18.0706 59.9422 17.9026C59.8862 17.7345 59.7951 17.5803 59.6749 17.45Z" fill="url(#paint5_linear_116_311)"/>
<path d="M56.4751 43.025C56.3586 42.8994 56.2174 42.799 56.0605 42.7301C55.9035 42.6614 55.734 42.6256 55.5626 42.625H19.8376C19.5538 42.616 19.2753 42.704 19.0481 42.8744C18.8209 43.0448 18.6585 43.2875 18.5876 43.5625L16.6126 51.175C16.5658 51.3595 16.5618 51.5522 16.6008 51.7385C16.6398 51.9249 16.7208 52.0998 16.8376 52.25C16.9541 52.4013 17.1036 52.5239 17.2748 52.6084C17.446 52.6929 17.6343 52.737 17.8251 52.7375H25.6251C25.9566 52.7375 26.2746 52.6059 26.509 52.3714C26.7434 52.137 26.8751 51.819 26.8751 51.4875C26.8751 50.6951 27.1899 49.9353 27.7501 49.375C28.3104 48.8148 29.0703 48.5 29.8626 48.5C30.655 48.5 31.4149 48.8148 31.9751 49.375C32.5354 49.9353 32.8501 50.6951 32.8501 51.4875C32.8501 51.819 32.9819 52.137 33.2163 52.3714C33.4506 52.6059 33.7686 52.7375 34.1001 52.7375H55.0001C55.317 52.7383 55.6224 52.6186 55.8545 52.4029C56.0865 52.187 56.228 51.8911 56.2501 51.575L56.7626 43.9625C56.7804 43.795 56.764 43.6255 56.7146 43.4644C56.6653 43.3033 56.5838 43.1539 56.4751 43.025Z" fill="url(#paint6_linear_116_311)"/>
<path d="M29.8625 46C28.7771 46 27.7162 46.3217 26.8137 46.9247C25.9113 47.5277 25.208 48.3847 24.7927 49.3875C24.3773 50.3901 24.2687 51.4935 24.4805 52.558C24.6921 53.6225 25.2148 54.6002 25.9822 55.3676C26.7497 56.1351 27.7275 56.6577 28.792 56.8695C29.8563 57.0812 30.9597 56.9726 31.9625 56.5572C32.9652 56.1419 33.8222 55.4385 34.4252 54.5361C35.0281 53.6337 35.35 52.5727 35.35 51.4875C35.3467 50.0331 34.7675 48.6392 33.7391 47.6109C32.7107 46.5825 31.3168 46.0032 29.8625 46Z" fill="url(#paint7_linear_116_311)"/>
<path d="M76.25 40.6001C76.2689 40.4926 76.2689 40.3826 76.25 40.2751C76.2555 40.2044 76.2555 40.1334 76.25 40.0626C76.2273 39.9834 76.1936 39.9076 76.15 39.8376C76.0948 39.7607 76.0319 39.6896 75.9625 39.6251C75.9625 39.6251 75.9625 39.5376 75.8625 39.5126L66.875 32.5126H66.7625C66.6804 32.4571 66.5924 32.411 66.5 32.3751C66.4294 32.3681 66.3581 32.3681 66.2875 32.3751C66.2293 32.3692 66.1706 32.3692 66.1125 32.3751H57.1125C56.8015 32.3736 56.5011 32.488 56.27 32.696C56.0389 32.904 55.8936 33.1907 55.8625 33.5001L53.75 51.3501C53.7303 51.5255 53.748 51.703 53.8019 51.8711C53.8558 52.0391 53.9445 52.1939 54.0625 52.3251C54.1794 52.4546 54.322 52.5582 54.4814 52.6292C54.6406 52.7002 54.8131 52.7372 54.9875 52.7376H61.2375C61.0458 52.349 60.9474 51.921 60.95 51.4876C60.9491 51.0559 61.043 50.6291 61.225 50.2376C61.4641 49.7195 61.8468 49.2807 62.3274 48.9731C62.8081 48.6656 63.3669 48.5021 63.9375 48.5021C64.5081 48.5021 65.0669 48.6656 65.5476 48.9731C66.0283 49.2807 66.4109 49.7195 66.65 50.2376C66.832 50.6291 66.9259 51.0559 66.925 51.4876C66.9276 51.921 66.8293 52.349 66.6375 52.7376H72.8875C73.1835 52.7425 73.4716 52.6421 73.7005 52.4544C73.9294 52.2666 74.0843 52.0039 74.1375 51.7126L76.25 40.8251V40.7501C76.2613 40.7007 76.2613 40.6495 76.25 40.6001Z" fill="url(#paint8_linear_116_311)"/>
<path d="M67.1624 43.75H61.0874C60.7559 43.75 60.4379 43.6183 60.2035 43.3839C59.9692 43.1495 59.8374 42.8315 59.8374 42.5V37C59.8374 36.6685 59.9692 36.3505 60.2035 36.1161C60.4379 35.8818 60.7559 35.75 61.0874 35.75C61.4189 35.75 61.7369 35.8818 61.9713 36.1161C62.2058 36.3505 62.3374 36.6685 62.3374 37V41.25H67.1624C67.4939 41.25 67.8119 41.3818 68.0463 41.6161C68.2808 41.8505 68.4124 42.1685 68.4124 42.5C68.4124 42.8315 68.2808 43.1495 68.0463 43.3839C67.8119 43.6183 67.4939 43.75 67.1624 43.75Z" fill="url(#paint9_linear_116_311)"/>
<path d="M64.0378 46C62.9524 46 61.8915 46.3217 60.989 46.9247C60.0867 47.5277 59.3833 48.3847 58.968 49.3875C58.5527 50.3901 58.444 51.4935 58.6557 52.558C58.8674 53.6225 59.39 54.6002 60.1575 55.3676C60.9249 56.1351 61.9028 56.6577 62.9672 56.8695C64.0317 57.0812 65.135 56.9726 66.1378 56.5572C67.1404 56.1419 67.9975 55.4385 68.6004 54.5361C69.2034 53.6337 69.5253 52.5727 69.5253 51.4875C69.5219 50.0331 68.9428 48.6392 67.9144 47.6109C66.886 46.5825 65.4922 46.0032 64.0378 46Z" fill="url(#paint10_linear_116_311)"/>
<path d="M35 20.3376C32.875 17.9626 26.9625 25.6751 28.75 27.4626C30.775 29.8376 36.6875 22.1251 35 20.3376Z" fill="white"/>
<path d="M25.2877 31.225C23.5502 33.725 24.8252 35.8625 26.9002 32.8375C28.6377 30.3125 27.3752 28.25 25.2877 31.225Z" fill="white"/>
<defs>
<linearGradient id="paint0_linear_116_311" x1="6.5625" y1="21.375" x2="26.125" y2="21.375" gradientUnits="userSpaceOnUse">
<stop stop-color="#B7D389"/>
<stop offset="0.22" stop-color="#A1C571"/>
<stop offset="0.69" stop-color="#69A134"/>
<stop offset="1" stop-color="#418808"/>
</linearGradient>
<linearGradient id="paint1_linear_116_311" x1="133.66" y1="89.0501" x2="317.278" y2="89.0501" gradientUnits="userSpaceOnUse">
<stop stop-color="#B7D389"/>
<stop offset="0.22" stop-color="#A1C571"/>
<stop offset="0.69" stop-color="#69A134"/>
<stop offset="1" stop-color="#418808"/>
</linearGradient>
<linearGradient id="paint2_linear_116_311" x1="66.1875" y1="109.188" x2="412.715" y2="109.188" gradientUnits="userSpaceOnUse">
<stop stop-color="#B7D389"/>
<stop offset="0.22" stop-color="#A1C571"/>
<stop offset="0.69" stop-color="#69A134"/>
<stop offset="1" stop-color="#418808"/>
</linearGradient>
<linearGradient id="paint3_linear_116_311" x1="110.194" y1="129.363" x2="291.999" y2="129.363" gradientUnits="userSpaceOnUse">
<stop stop-color="#B7D389"/>
<stop offset="0.22" stop-color="#A1C571"/>
<stop offset="0.69" stop-color="#69A134"/>
<stop offset="1" stop-color="#418808"/>
</linearGradient>
<linearGradient id="paint4_linear_116_311" x1="63.75" y1="149.5" x2="215.55" y2="149.5" gradientUnits="userSpaceOnUse">
<stop stop-color="#B7D389"/>
<stop offset="0.22" stop-color="#A1C571"/>
<stop offset="0.69" stop-color="#69A134"/>
<stop offset="1" stop-color="#418808"/>
</linearGradient>
<linearGradient id="paint5_linear_116_311" x1="21.0124" y1="31.075" x2="59.9874" y2="31.075" gradientUnits="userSpaceOnUse">
<stop stop-color="#418607"/>
<stop offset="0.91" stop-color="#206507"/>
<stop offset="1" stop-color="#1D6207"/>
</linearGradient>
<linearGradient id="paint6_linear_116_311" x1="550.77" y1="452.711" x2="1843.05" y2="452.711" gradientUnits="userSpaceOnUse">
<stop stop-color="#B7D389"/>
<stop offset="0.22" stop-color="#A1C571"/>
<stop offset="0.69" stop-color="#69A134"/>
<stop offset="1" stop-color="#418808"/>
</linearGradient>
<linearGradient id="paint7_linear_116_311" x1="238.388" y1="524.4" x2="334.748" y2="524.4" gradientUnits="userSpaceOnUse">
<stop stop-color="#418607"/>
<stop offset="0.91" stop-color="#206507"/>
<stop offset="1" stop-color="#1D6207"/>
</linearGradient>
<linearGradient id="paint8_linear_116_311" x1="1022.86" y1="773.762" x2="1427.14" y2="773.762" gradientUnits="userSpaceOnUse">
<stop stop-color="#B7D389"/>
<stop offset="0.22" stop-color="#A1C571"/>
<stop offset="0.69" stop-color="#69A134"/>
<stop offset="1" stop-color="#418808"/>
</linearGradient>
<linearGradient id="paint9_linear_116_311" x1="470.322" y1="309.35" x2="529.148" y2="309.35" gradientUnits="userSpaceOnUse">
<stop stop-color="#418607"/>
<stop offset="0.91" stop-color="#206507"/>
<stop offset="1" stop-color="#1D6207"/>
</linearGradient>
<linearGradient id="paint10_linear_116_311" x1="572.618" y1="524.4" x2="668.98" y2="524.4" gradientUnits="userSpaceOnUse">
<stop stop-color="#418607"/>
<stop offset="0.91" stop-color="#206507"/>
<stop offset="1" stop-color="#1D6207"/>
</linearGradient>
</defs>
</svg>
