<svg width="18" height="26" viewBox="0 0 18 26" fill="none" xmlns="http://www.w3.org/2000/svg">
<path d="M13.2069 18.16C13.356 18.2447 13.5204 18.2984 13.6905 18.3181C13.8605 18.3378 14.0327 18.3231 14.197 18.2747C14.3613 18.2264 14.5143 18.1455 14.6472 18.0367C14.7801 17.9279 14.8901 17.7934 14.9709 17.6412C16.6269 14.3983 18 11.0673 18 9.08002C18 6.67185 17.0518 4.36231 15.364 2.65948C13.6761 0.956643 11.3869 0 9 0C6.61305 0 4.32387 0.956643 2.63604 2.65948C0.948212 4.36231 0 6.67185 0 9.08002C0 12.9715 5.59029 22.0359 8.07943 25.4241C8.21389 25.6066 8.38938 25.7544 8.59147 25.8552C8.79355 25.956 9.01647 26.007 9.24189 26.0039C9.46731 26.0009 9.68879 25.9439 9.88813 25.8377C10.0875 25.7315 10.259 25.579 10.3886 25.3929C10.9389 24.5991 11.6434 23.5043 12.4097 22.2383C12.4985 22.0883 12.5566 21.9219 12.5806 21.7489C12.6046 21.5759 12.594 21.3998 12.5494 21.231C12.5049 21.0622 12.4272 20.9041 12.3211 20.7661C12.2149 20.6281 12.0824 20.513 11.9314 20.4275C11.6404 20.2682 11.2998 20.2278 10.9801 20.3148C10.6604 20.4017 10.386 20.6092 10.2137 20.8944C9.86914 21.4652 9.52972 22.0152 9.18514 22.534C6.25886 18.2275 2.57143 11.5187 2.57143 9.08002C2.57143 7.3599 3.24872 5.71023 4.45431 4.49392C5.6599 3.27761 7.29504 2.59429 9 2.59429C10.705 2.59429 12.3401 3.27761 13.5457 4.49392C14.7513 5.71023 15.4286 7.3599 15.4286 9.08002C15.4286 10.5173 14.2354 13.4177 12.6874 16.4374C12.5339 16.7372 12.5017 17.0855 12.5977 17.4087C12.6936 17.732 12.9102 18.0051 13.2017 18.1704L13.2069 18.16Z" fill="#222222"/>
<path d="M9.12891 7.72856C9.41394 7.72856 9.69258 7.81309 9.92958 7.97144C10.1666 8.1298 10.3513 8.35488 10.4604 8.61822C10.5695 8.88156 10.598 9.17134 10.5424 9.4509C10.4868 9.73046 10.3495 9.98725 10.148 10.1888C9.94642 10.3904 9.68963 10.5276 9.41007 10.5832C9.13051 10.6388 8.84073 10.6103 8.57739 10.5012C8.31405 10.3921 8.08897 10.2074 7.93061 9.97041C7.77225 9.73341 7.68773 9.45478 7.68773 9.16974C7.68773 8.78751 7.83957 8.42095 8.10984 8.15067C8.38011 7.8804 8.74668 7.72856 9.12891 7.72856ZM9.12891 5.66974C8.43667 5.66974 7.75998 5.87501 7.18441 6.2596C6.60884 6.64418 6.16024 7.1908 5.89533 7.83035C5.63042 8.46989 5.56111 9.17362 5.69616 9.85255C5.83121 10.5315 6.16455 11.1551 6.65403 11.6446C7.14352 12.1341 7.76716 12.4674 8.44609 12.6025C9.12502 12.7375 9.82876 12.6682 10.4683 12.4033C11.1078 12.1384 11.6545 11.6898 12.0391 11.1142C12.4236 10.5387 12.6289 9.86197 12.6289 9.16974C12.6278 8.24182 12.2587 7.35221 11.6026 6.69607C10.9464 6.03993 10.0568 5.67083 9.12891 5.66974Z" fill="#222222"/>
</svg>
