<svg width="28" height="28" viewBox="0 0 28 28" fill="none" xmlns="http://www.w3.org/2000/svg">
<path d="M25.375 16.625H21.4375C21.175 16.625 21 16.5375 20.825 16.3625L14 9.1875L7.175 16.3625C7.00001 16.5375 6.82501 16.625 6.56251 16.625H2.62501C2.27501 16.625 1.92501 16.45 1.83751 16.1C1.66251 15.75 1.75001 15.4 2.01251 15.1375L13.3875 2.8875C13.7375 2.5375 14.35 2.5375 14.7 2.8875L26.075 15.1375C26.3375 15.4 26.3375 15.75 26.25 16.1C26.075 16.45 25.725 16.625 25.375 16.625Z" fill="#676767"/>
<path d="M21.4375 18.375C20.7375 18.375 20.0375 18.1125 19.5125 17.5875L14 11.725L8.4875 17.5875C7.9625 18.1125 7.2625 18.375 6.5625 18.375H5.25V24.5C5.25 25.025 5.6 25.375 6.125 25.375H21.875C22.4 25.375 22.75 25.025 22.75 24.5V18.375H21.4375Z" fill="#676767"/>
</svg>
