<svg width="33" height="33" viewBox="0 0 33 33" fill="none" xmlns="http://www.w3.org/2000/svg">
<path d="M28.1875 12.0312H20.625V7.5625C20.625 6.66875 20.2812 5.775 19.5938 5.15625C18.975 4.46875 18.0812 4.125 17.1875 4.125H4.8125C3.91875 4.125 3.025 4.46875 2.40625 5.15625C1.7875 5.84375 1.375 6.66875 1.375 7.5625V15.8125C1.375 16.7062 1.71875 17.6 2.40625 18.2187C3.025 18.9062 3.91875 19.25 4.8125 19.25V20.6937C4.8125 20.9687 4.88125 21.2437 5.01875 21.45C5.15625 21.6562 5.3625 21.8625 5.6375 21.9312C5.9125 22.0687 6.1875 22.0687 6.4625 22C6.7375 21.9312 6.94375 21.7937 7.15 21.5875L7.21875 21.5187L8.9375 19.25H12.375V23.7187C12.375 24.6125 12.7188 25.5062 13.4062 26.125C14.025 26.7437 14.9187 27.1562 15.8125 27.1562H23.4437L25.85 29.5625C26.0562 29.7687 26.2625 29.9062 26.5375 29.9062C26.8125 29.975 27.0875 29.9062 27.3625 29.8375C27.6375 29.7 27.8438 29.5625 27.9813 29.3562C28.1187 29.15 28.1875 28.875 28.1875 28.6V27.1562C29.0812 27.1562 29.975 26.8125 30.5938 26.125C31.2125 25.5062 31.625 24.6125 31.625 23.7187V15.4687C31.625 14.575 31.2812 13.6812 30.5938 13.0625C29.975 12.375 29.0812 12.0312 28.1875 12.0312ZM8.59375 17.875C8.45625 17.875 8.3875 17.875 8.31875 17.9437C8.25 18.0125 8.1125 18.0812 8.04375 18.15L6.1875 20.6937V18.5625C6.1875 18.3562 6.11875 18.2187 5.98125 18.0812C5.84375 17.9437 5.70625 17.875 5.5 17.875H4.8125C4.2625 17.875 3.7125 17.6687 3.36875 17.2562C2.95625 16.9125 2.75 16.3625 2.75 15.8125V7.5625C2.75 7.0125 2.95625 6.4625 3.36875 6.11875C3.7125 5.70625 4.2625 5.5 4.8125 5.5H17.1875C17.7375 5.5 18.2875 5.70625 18.6313 6.11875C19.0438 6.4625 19.25 7.0125 19.25 7.5625V12.0312H15.8125C15.0562 12.0312 14.3687 12.2375 13.75 12.7187L11.6187 7.975C11.55 7.8375 11.4812 7.76875 11.3438 7.7C11.275 7.63125 11.1375 7.5625 11 7.5625C10.8625 7.5625 10.725 7.63125 10.6562 7.7C10.5188 7.76875 10.45 7.90625 10.3813 7.975L6.94375 15.5375C6.875 15.6062 6.875 15.675 6.875 15.8125C6.875 15.8812 6.875 16.0187 6.94375 16.0875C6.94375 16.1562 7.0125 16.225 7.08125 16.2937C7.15 16.3625 7.21875 16.4312 7.2875 16.4312C7.35625 16.5 7.49375 16.5 7.5625 16.5C7.7 16.5 7.8375 16.4312 7.90625 16.3625C8.04375 16.2937 8.1125 16.1562 8.18125 16.0875L9.28125 13.75H12.7875L12.8563 13.8875C12.5813 14.3687 12.4438 14.9187 12.4438 15.4687V17.875H8.59375ZM12.1 12.375H9.83125L10.9312 9.9L12.1 12.375ZM30.25 23.7187C30.25 24.2687 30.0437 24.8187 29.6312 25.1625C29.2187 25.5062 28.7375 25.7812 28.1875 25.7812H27.5C27.2938 25.7812 27.1562 25.85 27.0187 25.9875C26.8813 26.125 26.8125 26.2625 26.8125 26.4687V28.6L24.2 25.9875C24.0625 25.85 23.925 25.7812 23.7188 25.7812H15.8125C15.2625 25.7812 14.7125 25.575 14.3687 25.1625C13.9563 24.75 13.75 24.2687 13.75 23.7187V15.4687C13.75 14.9187 13.9563 14.3687 14.3687 14.025C14.7812 13.6125 15.2625 13.4062 15.8125 13.4062H28.1875C28.7375 13.4062 29.2875 13.6125 29.6312 14.025C30.0437 14.4375 30.25 14.9187 30.25 15.4687V23.7187Z" fill="#767676"/>
<path d="M23.7188 21.3125C23.925 21.175 24.1313 21.0375 24.2688 20.9C24.4063 20.7625 24.5438 20.625 24.6813 20.4875C24.8188 20.35 24.8875 20.2125 24.9563 20.075C25.025 19.9375 25.025 19.8 25.025 19.6625C25.025 19.5938 25.025 19.4563 24.9563 19.3875C24.9563 19.3188 24.8875 19.1813 24.8188 19.1125C24.75 19.0438 24.6813 18.975 24.6125 18.9063C24.5438 18.8375 24.4063 18.8375 24.2688 18.8375C24.1313 18.8375 23.9938 18.8375 23.8563 18.9063C23.7188 18.975 23.5813 19.0438 23.5125 19.1813C23.375 19.3188 23.3063 19.4563 23.2375 19.5938C23.1688 19.7313 23.0313 19.8688 23.0313 20.075V23.5125H21.6563V21.7938C21.5875 21.7938 21.5875 21.8625 21.5188 21.8625C21.45 21.8625 21.3125 21.9313 21.2438 22C21.175 22.0688 21.0375 22.0688 20.9 22.0688C20.7625 22.0688 20.625 22.1375 20.4875 22.1375C20.2125 22.1375 19.8688 22.0688 19.5938 21.9313C19.3188 21.7938 19.0438 21.5875 18.8375 21.3813C18.6313 21.175 18.425 20.9 18.2875 20.5563C18.15 20.2813 18.0813 19.9375 18.0813 19.5938C18.0813 19.3188 18.15 19.0438 18.2188 18.7688C18.2875 18.4938 18.425 18.2875 18.6313 18.0813C18.8375 17.875 19.0438 17.7375 19.3188 17.6C19.5938 17.4625 19.8688 17.3938 20.2125 17.3938C20.4188 17.3938 20.6938 17.4625 20.9 17.5313C21.1063 17.6 21.3813 17.7375 21.6563 17.9438V16.775H17.325V15.6063H27.4313V16.775H23.0313V18.0125C23.1688 17.875 23.3063 17.8063 23.4438 17.7375C23.5813 17.6688 23.7188 17.6 23.8563 17.6C23.9938 17.5313 24.1313 17.5313 24.2 17.5313C24.3375 17.5313 24.4063 17.5313 24.475 17.5313C24.75 17.5313 25.025 17.6 25.3 17.7375C25.575 17.875 25.7813 18.0125 25.9188 18.2188C26.0563 18.425 26.1938 18.6313 26.3313 18.9063C26.4688 19.1813 26.4688 19.3875 26.4688 19.6625C26.4688 19.9375 26.4 20.2125 26.3313 20.4875C26.2625 20.7625 26.125 21.0375 25.9188 21.2438C25.7125 21.5188 25.5063 21.725 25.3 21.9313C25.0938 22.1375 24.75 22.3438 24.475 22.4813L23.7188 21.3125ZM21.6563 19.25C21.5875 19.1813 21.5188 19.1125 21.45 19.0438C21.3813 18.975 21.3125 18.9063 21.175 18.8375C21.0375 18.7688 20.9688 18.7 20.8313 18.7C20.6938 18.7 20.625 18.6313 20.4875 18.6313C20.35 18.6313 20.2125 18.6313 20.075 18.7C19.9375 18.7688 19.8688 18.8375 19.7313 18.9063C19.6625 18.975 19.5938 19.1125 19.525 19.25C19.4563 19.3875 19.4563 19.525 19.4563 19.6625C19.4563 19.8 19.4563 20.0063 19.525 20.1438C19.5938 20.2813 19.6625 20.4188 19.7313 20.4875C19.8 20.625 19.9375 20.6938 20.075 20.7625C20.2125 20.8313 20.35 20.8313 20.5563 20.8313C20.7625 20.8313 20.9 20.7625 21.0375 20.6938C21.175 20.625 21.2438 20.5563 21.3813 20.4188C21.5188 20.2813 21.5188 20.1438 21.5188 20.0063C21.5188 19.8688 21.5875 19.7313 21.5875 19.5938V19.25H21.6563Z" fill="#767676"/>
</svg>
