<svg width="19" height="20" viewBox="0 0 19 20" fill="none" xmlns="http://www.w3.org/2000/svg">
<path d="M15.3333 4.74998H15.5833V4.49998V1.74998C15.5833 1.44056 15.4604 1.14381 15.2416 0.925022C15.0228 0.706229 14.7261 0.583313 14.4167 0.583313H1.58332C1.2739 0.583313 0.977158 0.706229 0.758365 0.925022C0.539573 1.14381 0.416656 1.44056 0.416656 1.74998V18.25C0.416656 18.5594 0.539573 18.8561 0.758365 19.0749C0.977158 19.2937 1.2739 19.4166 1.58332 19.4166H14.4167C14.7261 19.4166 15.0228 19.2937 15.2416 19.0749C15.4604 18.8561 15.5833 18.5594 15.5833 18.25V15.5V15.25H15.3333H13.5H13.25V15.5V17.0833H2.74999V2.91665H13.25V4.49998V4.74998H13.5H15.3333ZM13.25 13.6666V14.1868L13.6562 13.8619L18.2395 10.1952L18.4835 9.99998L18.2395 9.80476L13.6562 6.1381L13.25 5.81316V6.33331V8.83331H7.08332H6.83332V9.08331V10.9166V11.1666H7.08332H13.25V13.6666Z" fill="#656565" stroke="#666666" stroke-width="0.5"/>
</svg>
