<svg width="51" height="48" viewBox="0 0 51 48" fill="none" xmlns="http://www.w3.org/2000/svg">
<path fill-rule="evenodd" clip-rule="evenodd" d="M12.9547 24.681C13.4708 22.7164 16.7935 19.0125 18.2775 17.7564C20.6002 15.7918 23.2777 14.117 27.0843 13.8271C38.1816 13.022 38.6655 21.6213 40.3107 26.0337L50.1499 26.1625C50.1176 19.9465 49.2789 15.4697 45.6658 12.0879C44.1173 10.6386 41.8914 9.3181 39.0203 9.51135C35.4395 9.76901 35.6331 11.7337 32.0523 9.41473C24.1487 4.26156 13.8902 17.7886 12.9547 24.681Z" fill="url(#paint0_linear_175_413)"/>
<path fill-rule="evenodd" clip-rule="evenodd" d="M13.7611 27.2254C12.632 27.3542 11.4062 27.2254 10.3094 27.2898C7.66409 27.4186 7.85765 29.7054 10.3416 29.7698C11.0513 29.802 11.8901 29.7054 12.5998 29.7054C14.8257 29.7054 17.0193 29.7054 19.2452 29.7054C20.8905 24.8743 25.31 19.7211 31.1813 19.6245C34.375 19.5923 34.9556 20.3974 37.3428 20.9772C36.6976 19.1414 33.7298 17.0157 31.7942 16.2427C29.3747 15.2765 25.9552 15.1154 23.1809 16.0172C18.2129 17.692 15.4709 22.8452 13.7611 27.2254Z" fill="url(#paint1_linear_175_413)"/>
<path fill-rule="evenodd" clip-rule="evenodd" d="M33.5685 7.6433C34.7298 6.87033 39.6655 4.35815 40.8269 4.00387C39.4397 5.51762 36.9557 6.96695 35.1169 8.25524C38.6977 10.4775 46.7626 6.09735 47.9885 0.879766C46.1497 0.976388 44.8916 1.52391 42.8592 1.36288C40.9559 1.20184 40.1817 0.267825 38.0526 1.16963C35.7621 2.13585 33.8911 4.84127 33.5685 7.6433Z" fill="url(#paint2_linear_175_413)"/>
<path fill-rule="evenodd" clip-rule="evenodd" d="M19.2453 30.2206H16.7935H6.47049C5.9866 30.2206 5.59948 30.6071 5.59948 31.0902C5.59948 31.5733 5.9866 31.9598 6.47049 31.9598H16.8903H17.0194C17.5032 31.9598 17.4065 32.8294 17.8904 32.8294H18.6001C18.7936 31.9598 18.9872 31.0902 19.2453 30.2206ZM18.471 33.5058C17.7613 33.6346 17.1807 33.7312 17.0194 33.7312C15.0515 33.7312 5.664 33.7312 3.69617 33.7312C3.21228 33.7312 2.82517 34.0855 2.82517 34.5364C2.82517 35.0195 3.21228 35.406 3.69617 35.406C4.59944 35.406 5.47045 35.406 6.40597 35.406C6.88986 35.406 7.27698 35.7603 7.27698 36.2434C7.27698 36.7265 6.88986 37.113 6.40597 37.113H5.30915C4.82526 37.113 4.40588 37.3707 4.40588 37.886C4.40588 38.4013 4.72848 38.7234 5.27689 38.7556C6.56727 38.82 15.4386 38.7556 16.7613 38.7556C17.2452 38.7556 17.1484 39.6252 17.6323 39.6252H18.2452C17.9226 37.6283 18.0839 35.5671 18.471 33.5058ZM18.342 40.2693C17.5678 40.3982 16.8903 40.527 16.729 40.527H7.6641C7.14794 40.527 6.79309 40.8169 6.79309 41.3644C6.79309 41.8475 7.1802 42.234 7.6641 42.234H18.9227C18.6968 41.5898 18.471 40.9457 18.342 40.2693ZM3.98651 30.2851C3.50262 30.2851 3.1155 30.6715 3.1155 31.1547C3.1155 31.6378 3.50262 32.0242 3.98651 32.0242C4.4704 32.0242 4.85752 31.6378 4.85752 31.1547C4.85752 30.6715 4.4704 30.2851 3.98651 30.2851ZM1.21219 33.699C0.7283 33.699 0.341187 34.0855 0.341187 34.5686C0.341187 35.0517 0.7283 35.4382 1.21219 35.4382C1.69609 35.4382 2.0832 35.0517 2.0832 34.5686C2.0832 34.0855 1.69609 33.699 1.21219 33.699ZM2.76065 36.9842C3.24454 36.9842 3.63166 37.3707 3.63166 37.8538C3.63166 38.3369 3.24454 38.7234 2.76065 38.7234C2.27676 38.7234 1.88964 38.3369 1.88964 37.8538C1.88964 37.3707 2.27676 36.9842 2.76065 36.9842ZM4.95429 40.4626C4.4704 40.4626 4.08329 40.8491 4.08329 41.3322C4.08329 41.8153 4.4704 42.2018 4.95429 42.2018C5.43819 42.2018 5.8253 41.8153 5.8253 41.3322C5.8253 40.8491 5.43819 40.4626 4.95429 40.4626Z" fill="#1A1A1A"/>
<path fill-rule="evenodd" clip-rule="evenodd" d="M29.6651 35.3738H36.7945C31.149 45.5191 22.6648 37.886 21.1808 29.2544C19.9872 33.377 18.3743 38.8844 21.3744 43.3934C28.7618 54.4728 49.2144 44.0054 49.9563 28.5459L33.6653 28.4814C32.7298 29.0934 30.0845 34.1177 29.6651 35.3738Z" fill="url(#paint3_linear_175_413)"/>
<defs>
<linearGradient id="paint0_linear_175_413" x1="12.9547" y1="17.2166" x2="50.1499" y2="17.2166" gradientUnits="userSpaceOnUse">
<stop stop-color="#F73153"/>
<stop offset="1" stop-color="#FB0830"/>
</linearGradient>
<linearGradient id="paint1_linear_175_413" x1="8.40109" y1="22.5992" x2="37.3428" y2="22.5992" gradientUnits="userSpaceOnUse">
<stop stop-color="#67B01E"/>
<stop offset="1" stop-color="#84CE3A"/>
</linearGradient>
<linearGradient id="paint2_linear_175_413" x1="33.5685" y1="4.81482" x2="47.9885" y2="4.81482" gradientUnits="userSpaceOnUse">
<stop offset="0.000290627" stop-color="#69B220"/>
<stop offset="1" stop-color="#84CE3A"/>
</linearGradient>
<linearGradient id="paint3_linear_175_413" x1="19.6626" y1="38.2407" x2="49.9563" y2="38.2407" gradientUnits="userSpaceOnUse">
<stop stop-color="#C9AE17"/>
<stop offset="1" stop-color="#F9C304"/>
</linearGradient>
</defs>
</svg>
