<svg width="18" height="18" viewBox="0 0 18 18" fill="none" xmlns="http://www.w3.org/2000/svg">
<path d="M16.6011 0H1.58718C0.945318 0 0.442993 0.502325 0.442993 1.14418C0.442993 1.78604 0.945318 2.28837 1.58718 2.28837H16.629C17.2709 2.28837 17.7732 1.78604 17.7732 1.14418C17.7453 0.502325 17.243 0 16.6011 0Z" fill="#0A0A0A"/>
<path d="M16.6011 15.0419H1.58718C0.945318 15.0419 0.442993 15.5442 0.442993 16.1861C0.442993 16.8279 0.945318 17.3302 1.58718 17.3302H16.629C17.2709 17.3302 17.7732 16.8279 17.7732 16.1861C17.7453 15.5442 17.243 15.0419 16.6011 15.0419Z" fill="#0A0A0A"/>
<path d="M16.6011 7.50699H1.58718C0.945318 7.50699 0.442993 8.00931 0.442993 8.65117C0.442993 9.29303 0.945318 9.79536 1.58718 9.79536H16.629C17.2709 9.79536 17.7732 9.29303 17.7732 8.65117C17.7453 8.00931 17.243 7.50699 16.6011 7.50699Z" fill="#0A0A0A"/>
</svg>
