<svg width="25" height="25" viewBox="0 0 25 25" fill="none" xmlns="http://www.w3.org/2000/svg">
<g clip-path="url(#clip0_107_114)">
<path d="M19.2707 18.9612H5.729" stroke="#222222" stroke-width="2" stroke-linecap="round" stroke-linejoin="round"/>
<path d="M12.5 20.9389C12.3455 20.9389 12.1944 20.9847 12.066 21.0706C11.9375 21.1564 11.8374 21.2784 11.7782 21.4212C11.7191 21.5639 11.7036 21.721 11.7338 21.8726C11.7639 22.0241 11.8383 22.1633 11.9476 22.2726C12.0568 22.3818 12.196 22.4563 12.3476 22.4864C12.4991 22.5165 12.6562 22.5011 12.799 22.4419C12.9417 22.3828 13.0637 22.2827 13.1496 22.1542C13.2354 22.0257 13.2812 21.8747 13.2812 21.7202C13.2814 21.6175 13.2613 21.5159 13.2221 21.421C13.1828 21.3262 13.1253 21.24 13.0527 21.1674C12.9802 21.0949 12.894 21.0373 12.7991 20.9981C12.7043 20.9589 12.6026 20.9388 12.5 20.9389Z" fill="#222222"/>
<path d="M17.1873 0.520832H7.81234C6.66174 0.520832 5.729 1.45357 5.729 2.60417V22.3958C5.729 23.5464 6.66174 24.4792 7.81234 24.4792H17.1873C18.3379 24.4792 19.2707 23.5464 19.2707 22.3958V2.60417C19.2707 1.45357 18.3379 0.520832 17.1873 0.520832Z" stroke="#222222" stroke-width="2" stroke-linecap="round" stroke-linejoin="round"/>
</g>
<defs>
<clipPath id="clip0_107_114">
<rect width="25" height="25" fill="white"/>
</clipPath>
</defs>
</svg>
