<svg width="80" height="80" viewBox="0 0 80 80" fill="none" xmlns="http://www.w3.org/2000/svg">
<path d="M59.6749 20.45C59.5614 20.3138 59.4203 20.203 59.2608 20.1255C59.1013 20.0479 58.9272 20.0051 58.7499 20H25.2249C24.9158 19.9981 24.617 20.1108 24.3863 20.3163C24.1554 20.5218 24.0089 20.8054 23.9749 21.1125L21.0249 46.725C21.0052 46.9004 21.0229 47.078 21.0767 47.246C21.1305 47.414 21.2194 47.5687 21.3374 47.7C21.4532 47.8317 21.5953 47.9377 21.7547 48.011C21.914 48.0841 22.087 48.123 22.2624 48.125H55.7749C56.0839 48.1269 56.3827 48.0142 56.6135 47.8088C56.8443 47.6034 56.9909 47.3196 57.0249 47.0125L59.9999 21.425C60.0179 21.2487 59.9983 21.0706 59.9422 20.9026C59.8862 20.7345 59.7951 20.5803 59.6749 20.45Z" fill="#858584"/>
<path d="M56.4751 46.025C56.3586 45.8994 56.2174 45.799 56.0605 45.7301C55.9035 45.6614 55.734 45.6256 55.5626 45.625H19.8376C19.5538 45.616 19.2753 45.704 19.0481 45.8744C18.8209 46.0448 18.6585 46.2875 18.5876 46.5625L16.6126 54.175C16.5658 54.3595 16.5618 54.5522 16.6008 54.7385C16.6398 54.9249 16.7208 55.0998 16.8376 55.25C16.9541 55.4013 17.1036 55.5239 17.2748 55.6084C17.446 55.6929 17.6343 55.737 17.8251 55.7375H25.6251C25.9566 55.7375 26.2746 55.6059 26.509 55.3714C26.7434 55.137 26.8751 54.819 26.8751 54.4875C26.8751 53.6951 27.1899 52.9353 27.7501 52.375C28.3104 51.8148 29.0703 51.5 29.8626 51.5C30.655 51.5 31.4149 51.8148 31.9751 52.375C32.5354 52.9353 32.8501 53.6951 32.8501 54.4875C32.8501 54.819 32.9819 55.137 33.2163 55.3714C33.4506 55.6059 33.7686 55.7375 34.1001 55.7375H55.0001C55.317 55.7383 55.6224 55.6186 55.8545 55.4029C56.0865 55.187 56.228 54.8911 56.2501 54.575L56.7626 46.9625C56.7804 46.795 56.764 46.6255 56.7146 46.4644C56.6653 46.3033 56.5838 46.1539 56.4751 46.025Z" fill="url(#paint0_linear_116_327)"/>
<path d="M29.8625 49C28.7771 49 27.7162 49.3217 26.8137 49.9247C25.9113 50.5277 25.208 51.3847 24.7927 52.3875C24.3773 53.3901 24.2687 54.4935 24.4805 55.558C24.6921 56.6225 25.2148 57.6002 25.9822 58.3676C26.7497 59.1351 27.7275 59.6577 28.792 59.8695C29.8563 60.0812 30.9597 59.9726 31.9625 59.5572C32.9652 59.1419 33.8222 58.4385 34.4252 57.5361C35.0281 56.6337 35.35 55.5727 35.35 54.4875C35.3467 53.0331 34.7675 51.6392 33.7391 50.6109C32.7107 49.5825 31.3168 49.0032 29.8625 49Z" fill="url(#paint1_linear_116_327)"/>
<path d="M76.25 43.6001C76.2689 43.4926 76.2689 43.3826 76.25 43.2751C76.2555 43.2044 76.2555 43.1334 76.25 43.0626C76.2273 42.9834 76.1936 42.9076 76.15 42.8376C76.0948 42.7607 76.0319 42.6896 75.9625 42.6251C75.9625 42.6251 75.9625 42.5376 75.8625 42.5126L66.875 35.5126H66.7625C66.6804 35.4571 66.5924 35.411 66.5 35.3751C66.4294 35.3681 66.3581 35.3681 66.2875 35.3751C66.2293 35.3692 66.1706 35.3692 66.1125 35.3751H57.1125C56.8015 35.3736 56.5011 35.488 56.27 35.696C56.0389 35.904 55.8936 36.1907 55.8625 36.5001L53.75 54.3501C53.7303 54.5255 53.748 54.703 53.8019 54.8711C53.8558 55.0391 53.9445 55.1939 54.0625 55.3251C54.1794 55.4546 54.322 55.5582 54.4814 55.6292C54.6406 55.7002 54.8131 55.7372 54.9875 55.7376H61.2375C61.0458 55.349 60.9474 54.921 60.95 54.4876C60.9491 54.0559 61.043 53.6291 61.225 53.2376C61.4641 52.7195 61.8468 52.2807 62.3274 51.9731C62.8081 51.6656 63.3669 51.5021 63.9375 51.5021C64.5081 51.5021 65.0669 51.6656 65.5476 51.9731C66.0283 52.2807 66.4109 52.7195 66.65 53.2376C66.832 53.6291 66.9259 54.0559 66.925 54.4876C66.9276 54.921 66.8293 55.349 66.6375 55.7376H72.8875C73.1835 55.7425 73.4716 55.6421 73.7005 55.4544C73.9294 55.2666 74.0843 55.0039 74.1375 54.7126L76.25 43.8251V43.7501C76.2613 43.7007 76.2613 43.6495 76.25 43.6001Z" fill="url(#paint2_linear_116_327)"/>
<path d="M67.1624 46.75H61.0874C60.7559 46.75 60.4379 46.6183 60.2035 46.3839C59.9692 46.1495 59.8374 45.8315 59.8374 45.5V40C59.8374 39.6685 59.9692 39.3505 60.2035 39.1161C60.4379 38.8818 60.7559 38.75 61.0874 38.75C61.4189 38.75 61.7369 38.8818 61.9713 39.1161C62.2058 39.3505 62.3374 39.6685 62.3374 40V44.25H67.1624C67.4939 44.25 67.8119 44.3818 68.0463 44.6161C68.2808 44.8505 68.4124 45.1685 68.4124 45.5C68.4124 45.8315 68.2808 46.1495 68.0463 46.3839C67.8119 46.6183 67.4939 46.75 67.1624 46.75Z" fill="url(#paint3_linear_116_327)"/>
<path d="M64.0378 49C62.9524 49 61.8915 49.3217 60.989 49.9247C60.0867 50.5277 59.3833 51.3847 58.968 52.3875C58.5527 53.3901 58.444 54.4935 58.6557 55.558C58.8674 56.6225 59.39 57.6002 60.1575 58.3676C60.9249 59.1351 61.9028 59.6577 62.9672 59.8695C64.0317 60.0812 65.135 59.9726 66.1378 59.5572C67.1404 59.1419 67.9975 58.4385 68.6004 57.5361C69.2034 56.6337 69.5253 55.5727 69.5253 54.4875C69.5219 53.0331 68.9428 51.6392 67.9144 50.6109C66.886 49.5825 65.4922 49.0032 64.0378 49Z" fill="url(#paint4_linear_116_327)"/>
<path d="M35 23.3376C32.875 20.9626 26.9625 28.6751 28.75 30.4626C30.775 32.8376 36.6875 25.1251 35 23.3376Z" fill="white"/>
<path d="M25.2877 34.225C23.5502 36.725 24.8252 38.8625 26.9002 35.8375C28.6377 33.3125 27.3752 31.25 25.2877 34.225Z" fill="white"/>
<defs>
<linearGradient id="paint0_linear_116_327" x1="550.77" y1="455.711" x2="1843.05" y2="455.711" gradientUnits="userSpaceOnUse">
<stop stop-color="#B7D389"/>
<stop offset="0.22" stop-color="#A1C571"/>
<stop offset="0.69" stop-color="#69A134"/>
<stop offset="1" stop-color="#418808"/>
</linearGradient>
<linearGradient id="paint1_linear_116_327" x1="238.388" y1="527.4" x2="334.748" y2="527.4" gradientUnits="userSpaceOnUse">
<stop stop-color="#418607"/>
<stop offset="0.91" stop-color="#206507"/>
<stop offset="1" stop-color="#1D6207"/>
</linearGradient>
<linearGradient id="paint2_linear_116_327" x1="1022.86" y1="776.762" x2="1427.14" y2="776.762" gradientUnits="userSpaceOnUse">
<stop stop-color="#B7D389"/>
<stop offset="0.22" stop-color="#A1C571"/>
<stop offset="0.69" stop-color="#69A134"/>
<stop offset="1" stop-color="#418808"/>
</linearGradient>
<linearGradient id="paint3_linear_116_327" x1="470.322" y1="312.35" x2="529.148" y2="312.35" gradientUnits="userSpaceOnUse">
<stop stop-color="#418607"/>
<stop offset="0.91" stop-color="#206507"/>
<stop offset="1" stop-color="#1D6207"/>
</linearGradient>
<linearGradient id="paint4_linear_116_327" x1="572.618" y1="527.4" x2="668.98" y2="527.4" gradientUnits="userSpaceOnUse">
<stop stop-color="#418607"/>
<stop offset="0.91" stop-color="#206507"/>
<stop offset="1" stop-color="#1D6207"/>
</linearGradient>
</defs>
</svg>
