<svg width="21" height="21" viewBox="0 0 21 21" fill="none" xmlns="http://www.w3.org/2000/svg">
<g clip-path="url(#clip0_129_76)">
<path d="M14.7001 8.39999H10.5001C10.2089 8.39999 9.9751 8.63378 9.9751 8.92499C9.9751 9.2162 10.2089 9.44999 10.5001 9.44999H14.7001C14.9913 9.44999 15.2251 9.2162 15.2251 8.92499C15.2251 8.63378 14.9913 8.39999 14.7001 8.39999Z" fill="#E7E7E7"/>
<path d="M8.69113 7.43613C8.44914 7.27617 8.12512 7.34179 7.96105 7.58378L7.16945 8.77324L6.53371 8.45331C6.27531 8.32206 5.95949 8.4287 5.82824 8.6871C5.69699 8.9455 5.80363 9.26132 6.06203 9.39257L7.11203 9.91757C7.34992 10.0365 7.63703 9.95859 7.78469 9.7371L8.83469 8.1621C8.99875 7.92421 8.93312 7.60019 8.69113 7.43613C8.69113 7.44023 8.69113 7.44023 8.69113 7.43613Z" fill="#E7E7E7"/>
<path d="M14.7001 12.075H10.5001C10.2089 12.075 9.9751 12.3088 9.9751 12.6C9.9751 12.8912 10.2089 13.125 10.5001 13.125H14.7001C14.9913 13.125 15.2251 12.8912 15.2251 12.6C15.2251 12.3088 14.9913 12.075 14.7001 12.075Z" fill="#E7E7E7"/>
<path d="M8.69113 11.1152C8.44914 10.9553 8.12512 11.0209 7.96105 11.2588L7.16945 12.4482L6.53371 12.1283C6.27531 11.9971 5.95949 12.1037 5.82824 12.3621C5.69699 12.6205 5.80363 12.9363 6.06203 13.0676L7.11203 13.5926C7.34992 13.7115 7.63703 13.6336 7.78469 13.4121L8.83469 11.8371C8.99875 11.5992 8.93312 11.2752 8.69113 11.1152Z" fill="#E7E7E7"/>
<path d="M14.7001 15.75H10.5001C10.2089 15.75 9.9751 15.9838 9.9751 16.275C9.9751 16.5662 10.2089 16.8 10.5001 16.8H14.7001C14.9913 16.8 15.2251 16.5662 15.2251 16.275C15.2251 15.9838 14.9913 15.75 14.7001 15.75Z" fill="#E7E7E7"/>
<path d="M8.69113 14.7861C8.44914 14.6262 8.12512 14.6918 7.96105 14.9297L7.16945 16.1191L6.53371 15.7992C6.27531 15.668 5.95949 15.7746 5.82824 16.033C5.69699 16.2914 5.80363 16.6072 6.06203 16.7385L7.11203 17.2635C7.34992 17.3824 7.63703 17.3045 7.78469 17.083L8.83469 15.508C8.99875 15.2742 8.93312 14.9502 8.69113 14.7861C8.69113 14.7902 8.69113 14.7902 8.69113 14.7861Z" fill="#E7E7E7"/>
<path d="M16.2749 1.575H13.9042C13.6581 1.24688 13.2726 1.05 12.8624 1.05H11.9847C11.6976 0.229688 10.7993 -0.200976 9.979 0.0902351C9.52783 0.250196 9.1751 0.60293 9.01924 1.05H8.1415C7.73135 1.05 7.3458 1.24688 7.09971 1.575H4.729C3.28115 1.5791 2.10811 2.75215 2.104 4.2V18.375C2.10811 19.8229 3.28115 20.9959 4.729 21H16.279C17.7269 20.9959 18.8999 19.8229 18.904 18.375V4.2C18.8958 2.75215 17.7228 1.5791 16.2749 1.575ZM10.4999 1.05C10.7911 1.05 11.0249 1.28379 11.0249 1.575C11.0249 1.86621 10.7911 2.1 10.4999 2.1C10.2087 2.1 9.9749 1.86621 9.9749 1.575C9.9749 1.28379 10.2087 1.05 10.4999 1.05ZM7.8749 2.3625C7.8749 2.21895 7.99385 2.1 8.1374 2.1H9.01514C9.30224 2.92031 10.2005 3.35098 11.0208 3.05977C11.472 2.89981 11.8247 2.54707 11.9806 2.1H12.8583C13.0019 2.1 13.1208 2.21895 13.1208 2.3625V3.9375C13.1208 4.08106 13.0019 4.2 12.8583 4.2H8.1374C7.99385 4.2 7.8749 4.08106 7.8749 3.9375V2.3625ZM17.8499 18.375C17.8499 19.2445 17.1444 19.95 16.2749 19.95H4.7249C3.85537 19.95 3.1499 19.2445 3.1499 18.375V4.2C3.1499 3.33047 3.85537 2.625 4.7249 2.625H6.8249V3.9375C6.8249 4.66348 7.41142 5.25 8.1374 5.25H12.8624C13.5884 5.25 14.1749 4.66348 14.1749 3.9375V2.625H16.2749C17.1444 2.625 17.8499 3.33047 17.8499 4.2V18.375Z" fill="#808080"/>
</g>
<defs>
<clipPath id="clip0_129_76">
<rect width="21" height="21" fill="white"/>
</clipPath>
</defs>
</svg>
