<svg width="22" height="22" viewBox="0 0 22 22" fill="none" xmlns="http://www.w3.org/2000/svg">
<path d="M7.84983 0.783652C9.80524 -0.261217 12.2495 -0.261217 14.2049 0.783652C16.1603 1.82852 17.3091 3.75328 17.2236 5.78803V6.04099C18.7635 6.04099 20.3889 7.00887 20.9511 9.36258L21.8921 15.9508C22.59 20.2512 19.8145 22 16.087 22H5.95552C2.21702 22 -0.643997 20.7901 0.125947 15.9508L1.07921 9.36258C1.22587 8.3837 1.75138 7.47082 2.57021 6.7999C3.19472 6.30606 4.00011 6.04099 4.83116 6.04099V5.78803C4.73339 3.75328 5.89564 1.82852 7.84983 0.783652ZM14.5349 9.58255C13.9373 9.58255 13.4472 10.0115 13.4472 10.5504C13.4472 11.0784 13.9373 11.5183 14.5349 11.5183C14.816 11.5183 15.0971 11.4193 15.2926 11.2323C15.5004 11.0564 15.6104 10.8034 15.6104 10.5504C15.6104 10.0115 15.1215 9.58255 14.5349 9.58255ZM7.44652 9.58255C6.84768 9.58255 6.35883 10.0115 6.35883 10.5504C6.35883 11.0784 6.84768 11.5183 7.44652 11.5183C8.04537 11.5183 8.522 11.0784 8.522 10.5504C8.522 10.0115 8.04537 9.58255 7.44652 9.58255ZM11.0029 1.91651C8.61977 1.91651 6.6888 3.65429 6.6888 5.78803V6.0311H15.3293V5.78803C15.3293 3.65429 13.3983 1.91651 11.0029 1.91651Z" fill="#676767"/>
</svg>
