<svg width="24" height="24" viewBox="0 0 24 24" fill="none" xmlns="http://www.w3.org/2000/svg">
<path d="M8.56345 0.854893C10.6966 -0.284964 13.3631 -0.284964 15.4963 0.854893C17.6295 1.99475 18.8827 4.09449 18.7894 6.31421V6.59018C20.4692 6.59018 22.2425 7.64604 22.8557 10.2137L23.8823 17.4008C24.6436 22.0922 21.6158 24 17.5495 24H6.49693C2.41856 24 -0.702542 22.6802 0.137397 17.4008L1.17732 10.2137C1.33731 9.14586 1.9106 8.14998 2.80387 7.41807C3.48515 6.87934 4.36376 6.59018 5.27036 6.59018V6.31421C5.1637 4.09449 6.4316 1.99475 8.56345 0.854893ZM15.8563 10.4537C15.2043 10.4537 14.6697 10.9216 14.6697 11.5096C14.6697 12.0855 15.2043 12.5654 15.8563 12.5654C16.1629 12.5654 16.4695 12.4574 16.6829 12.2535C16.9095 12.0615 17.0295 11.7855 17.0295 11.5096C17.0295 10.9216 16.4962 10.4537 15.8563 10.4537ZM8.12348 10.4537C7.4702 10.4537 6.9369 10.9216 6.9369 11.5096C6.9369 12.0855 7.4702 12.5654 8.12348 12.5654C8.77677 12.5654 9.29673 12.0855 9.29673 11.5096C9.29673 10.9216 8.77677 10.4537 8.12348 10.4537ZM12.0032 2.09074C9.40339 2.09074 7.29687 3.9865 7.29687 6.31421V6.57938H16.7229V6.31421C16.7229 3.9865 14.6163 2.09074 12.0032 2.09074Z" fill="#30AB4B"/>
</svg>
